<?xml version="1.0" standalone="no"?><!DOCTYPE svg PUBLIC "-//W3C//DTD SVG 1.1//EN" "http://www.w3.org/Graphics/SVG/1.1/DTD/svg11.dtd"><svg t="1690042763874" class="icon" viewBox="0 0 1024 1024" version="1.1" xmlns="http://www.w3.org/2000/svg" p-id="1327" xmlns:xlink="http://www.w3.org/1999/xlink" width="400" height="400"><path d="M810.666667 881.493333H213.333333c-47.146667 0-85.333333-38.186667-85.333333-85.333333V394.24c0-29.866667 15.573333-57.6 41.173333-72.96l254.506667-154.24a170.986667 170.986667 0 0 1 176.853333 0l254.506667 154.24c25.6 15.36 41.173333 43.093333 41.173333 72.96v401.92c-0.213333 47.146667-38.4 85.333333-85.546666 85.333333z" fill="#2953FF" p-id="1328"></path><path d="M663.253333 881.493333H360.746667v-170.666666c0-47.146667 38.186667-85.333333 85.333333-85.333334h131.84c47.146667 0 85.333333 38.186667 85.333333 85.333334v170.666666z" fill="#FCCA1E" p-id="1329"></path><path d="M408.746667 474.24H315.733333a35.008 35.008 0 0 1 0-69.973333h93.013334a35.008 35.008 0 0 1 0 69.973333z" fill="#FF354A" p-id="1330"></path></svg>