<?xml version="1.0" standalone="no"?><!DOCTYPE svg PUBLIC "-//W3C//DTD SVG 1.1//EN" "http://www.w3.org/Graphics/SVG/1.1/DTD/svg11.dtd"><svg t="1690020192950" class="icon" viewBox="0 0 1024 1024" version="1.1" xmlns="http://www.w3.org/2000/svg" p-id="1322" xmlns:xlink="http://www.w3.org/1999/xlink" width="200" height="200"><path d="M830.4 293.1c-0.1-0.4-0.1-0.8-0.2-1.1-1.8-0.2-3.6-0.3-5.5-0.3H287.4c-30 0-54.4 24.3-54.4 54.4v360.8c0 1.3 0.1 2.6 0.1 3.8 0.4 0.1 0.8 0.1 1.2 0.2 2.9 0.5 5.9 0.8 8.9 0.8h537.4c27.8 0 50.4-22.6 50.4-50.4V300.5c0-2.5-0.2-5-0.6-7.4zM820 677.6c0 13.8-11.2 25-25 25H316c-13.8 0-25-11.2-25-25v-302c0-13.8 11.2-25 25-25h479c13.8 0 25 11.2 25 25v302z" fill="#E5E7E7" p-id="1323"></path><path d="M684.7 787.6l-37.5-75h-65.7l50.6 101.2c7.3 14.5 24.9 20.4 39.4 13.1 14.6-7.2 20.4-24.8 13.2-39.3z m-345.9-0.6c-7.1 14.3-2 32 12.1 39.6 14.6 7.8 32.8 2 40.1-12.8l50.6-101.2H376L338.8 787z m171.9-593.1c-16.1 0.4-28.7 14-28.7 30v28.8h59v-29.4c0-16.5-13.7-29.8-30.3-29.4z" fill="#EFCB8E" p-id="1324"></path><path d="M830.4 293.6c-0.1-0.4-0.1-0.8-0.2-1.2-4.1-23.9-25.2-41.8-49.6-41.8H243.4c-27.8 0-50.4 22.6-50.4 50.4v361.2c0 24.1 16.9 44.6 40.3 49.4 0.4 0.1 0.8 0.1 1.2 0.2 2.9 0.5 5.9 0.8 8.9 0.8h537.2c27.8 0 50.4-22.6 50.4-50.4V301c0-2.5-0.2-4.9-0.6-7.4zM243 632.6v-302c0-16 13-29 29-29h479c16 0 29 13 29 29v302c0 16-13 29-29 29H272c-16 0-29-13-29-29z" fill="#1F1F1F" p-id="1325"></path><path d="M682.5 578.6H522.1c-12.3 0-23.5-10-24.4-22.2-1-14.1 10.1-25.8 23.9-25.8H682c12.3 0 23.5 10 24.4 22.2 1 14.1-10.1 25.8-23.9 25.8z" fill="#EFCB8E" p-id="1326"></path></svg>