<?xml version="1.0" standalone="no"?><!DOCTYPE svg PUBLIC "-//W3C//DTD SVG 1.1//EN" "http://www.w3.org/Graphics/SVG/1.1/DTD/svg11.dtd"><svg t="1690020216728" class="icon" viewBox="0 0 1024 1024" version="1.1" xmlns="http://www.w3.org/2000/svg" p-id="1623" xmlns:xlink="http://www.w3.org/1999/xlink" width="200" height="200"><path d="M512 981.161c-137.806 0-264.774-37.161-357.677-105.29l-10.84-7.742-1.548-13.935c0-15.484-1.548-29.42-1.548-44.904 0-131.613 71.226-253.935 184.258-320.516l18.58-10.839 17.033 13.936c41.807 34.064 94.452 52.645 150.194 52.645 54.193 0 108.387-18.58 150.193-54.193l17.032-13.936 18.581 10.839c114.58 66.58 185.807 188.903 185.807 320.516 0 15.484-1.549 30.968-3.097 46.452l-1.549 13.935-10.838 7.742C772.129 944 646.71 981.161 512 981.161zM203.871 832.516c80.516 55.742 190.452 85.161 309.677 85.161 116.13 0 224.517-29.419 305.033-83.612 0-9.29 1.548-17.033 1.548-26.323C820.129 704 767.484 608 682.323 550.71c-49.549 35.613-109.936 54.193-171.871 54.193-60.387 0-120.775-18.58-170.323-54.193C254.968 608 203.871 704 203.871 806.194c-1.548 10.838-1.548 18.58 0 26.322z" fill="#1890FF" p-id="1624"></path><path d="M573.935 620.387l-29.419 61.936 29.42 144-60.388 72.774-63.483-74.323 34.064-144-34.064-60.387h123.87z" fill="#FFC13D" p-id="1625"></path><path d="M304.516 287.484a170.323 170.323 0 1 0 340.645 0 170.323 170.323 0 1 0-340.645 0z" fill="#D3EAFF" p-id="1626"></path><path d="M510.452 508.903c-126.968 0-230.71-103.742-230.71-230.71s103.742-230.71 230.71-230.71 230.71 103.743 230.71 230.71-103.743 230.71-230.71 230.71z m0-399.484c-92.904 0-168.775 75.871-168.775 168.775s75.871 168.774 168.775 168.774 168.774-75.871 168.774-168.774-75.871-168.775-168.774-168.775z" fill="#1890FF" p-id="1627"></path></svg>