<?xml version="1.0" standalone="no"?><!DOCTYPE svg PUBLIC "-//W3C//DTD SVG 1.1//EN" "http://www.w3.org/Graphics/SVG/1.1/DTD/svg11.dtd"><svg t="1694332655929" class="icon" viewBox="0 0 1024 1024" version="1.1" xmlns="http://www.w3.org/2000/svg" p-id="4179" xmlns:xlink="http://www.w3.org/1999/xlink" width="200" height="200"><path d="M865.43 926.23H157.78c-33.08 0-60-26.92-60-60V158.58c0-33.08 26.92-60 60-60h707.65c33.08 0 60 26.92 60 60v707.65c0 33.09-26.91 60-60 60zM157.78 158.58v707.65H865.47l-0.04-707.65H157.78z" p-id="4180"></path><path d="M365.7 657.43c-6.15 0-12.32-2.2-17.23-6.65l-126.69-114.9a25.658 25.658 0 0 1-8.42-18.53 25.63 25.63 0 0 1 7.73-18.83L347.86 374.7c10.14-9.9 26.38-9.71 36.28 0.43 9.9 10.14 9.71 26.38-0.43 36.28L276.45 516.17l106.49 96.59c10.5 9.52 11.29 25.75 1.77 36.24-5.06 5.59-12.02 8.43-19.01 8.43zM454.33 746.99c-2.29 0-4.62-0.31-6.94-0.96-13.65-3.83-21.6-17.99-17.78-31.63l117.15-417.83c3.83-13.64 17.99-21.6 31.63-17.78 13.64 3.83 21.6 17.99 17.78 31.63L479.02 728.25c-3.17 11.33-13.48 18.74-24.69 18.74zM657.52 657.43c-6.99 0-13.95-2.84-19.01-8.42-9.52-10.5-8.73-26.72 1.77-36.24l106.49-96.59L639.5 411.4c-10.14-9.9-10.33-26.15-0.43-36.28s26.15-10.33 36.29-0.43l126.77 123.82a25.67 25.67 0 0 1 7.73 18.83 25.658 25.658 0 0 1-8.42 18.53l-126.69 114.9a25.581 25.581 0 0 1-17.23 6.66z" p-id="4181"></path></svg>